<svg width="111" height="42" viewBox="0 0 111 42" fill="none" xmlns="http://www.w3.org/2000/svg">
<path d="M53.1671 0C41.6211 0 32.2621 9.38 32.2621 20.951C32.2621 32.521 41.6211 41.903 53.1671 41.903C64.7121 41.903 74.0701 32.522 74.0701 20.951C74.0701 9.38 64.7111 0 53.1671 0ZM54.5481 3.874C59.8071 4.297 64.3941 7.105 67.2331 11.217L57.4991 16.847C56.7031 16 55.6771 15.405 54.5481 15.135V3.874ZM51.7791 3.874V15.135C50.6491 15.404 49.6231 15.999 48.8261 16.846L39.0911 11.216C41.9311 7.103 46.5201 4.295 51.7791 3.873V3.874ZM37.7261 28.321C35.5831 23.805 35.4401 18.418 37.6951 13.637L47.4371 19.246C47.1061 20.362 47.1091 21.551 47.4461 22.666L37.7261 28.321ZM39.8061 31.64C39.5901 31.371 39.3831 31.095 39.1841 30.813L48.9521 25.153C49.6951 25.902 50.6241 26.439 51.6431 26.709L51.6451 38.021C46.8591 37.598 42.6421 35.197 39.8061 31.64ZM53.1651 23.992C52.0721 24.004 51.0561 23.426 50.5061 22.478C49.9561 21.531 49.9561 20.361 50.5061 19.413C51.0561 18.466 52.0721 17.888 53.1651 17.9C53.9711 17.9 54.7441 18.221 55.3131 18.792C55.8831 19.363 56.2031 20.138 56.2031 20.945C56.2031 22.628 54.8421 23.992 53.1651 23.992ZM54.6901 38.021V26.71C55.7111 26.441 56.6411 25.904 57.3851 25.154L67.1571 30.81C64.3371 34.821 59.8421 37.567 54.6901 38.021ZM58.9171 22.514C59.2271 21.395 59.1851 20.228 58.8851 19.249L68.6271 13.615C71.0511 18.651 70.5551 24.227 68.6851 28.165L58.9171 22.514ZM15.9681 11.865C16.7351 14.374 18.6701 16.159 20.9311 16.159L20.9301 16.16C23.1091 16.16 27.6661 16.073 31.7141 15.933C32.9691 10.501 36.2261 5.838 40.6641 2.767H20.9301C18.6671 2.767 16.7321 4.561 15.9661 7.076H14.0671C13.5761 7.076 12.8471 7.671 12.8471 9.47C12.8471 11.269 13.5771 11.865 14.0671 11.865H15.9681ZM110.474 2.8V11.97L85.1981 13.512C85.0201 14.572 84.3121 15.729 82.6021 16.114L74.9391 17.945C74.0851 11.667 70.5951 6.232 65.6231 2.794L110.474 2.8ZM40.7111 10.899H40.7121H40.7111ZM48.6551 15.488L40.7121 10.899C43.2001 7.773 46.7541 5.717 50.6841 5.127L50.6881 14.318C49.9481 14.588 49.2601 14.983 48.6551 15.488ZM38.2591 26.754L46.1861 22.139C46.0501 21.361 46.0511 20.566 46.1881 19.789L38.2331 15.213C36.7851 18.923 36.7941 23.035 38.2591 26.754ZM55.6431 14.347L55.6591 5.135C59.5891 5.725 63.1271 7.774 65.6141 10.899L57.6521 15.485C57.0471 14.978 56.3841 14.618 55.6431 14.347ZM69.0941 19.294C68.9481 17.889 68.6121 16.511 68.0951 15.196L60.1221 19.788C60.1871 20.17 60.2231 20.551 60.2231 20.938C60.2231 21.094 60.2171 21.256 60.2051 21.411L69.0941 19.294ZM25.3211 31.081C21.5401 34.194 15.2921 37.066 11.7791 37.993C8.26509 38.918 5.45309 39.463 0.590088 39.463V41.999C4.59109 41.999 8.05409 41.983 13.7211 41.15C20.7141 40.121 28.5511 37.292 34.9981 33.321C33.2601 30.809 32.0991 27.963 31.5261 24.842C29.7791 26.992 27.6131 29.196 25.3211 31.081ZM53.1661 18.982C54.2441 18.982 55.1221 19.864 55.1221 20.945C55.1221 22.028 54.2471 22.907 53.1661 22.908C52.0851 22.906 51.2091 22.028 51.2071 20.945C51.2101 19.862 52.0851 18.984 53.1661 18.982Z" fill="#FF1F1F" style="fill:#FF1F1F;fill:color(display-p3 1.0000 0.1216 0.1216);fill-opacity:1;"/>
</svg>
